<?xml version="1.0" encoding="UTF-8"?>
<!DOCTYPE svg PUBLIC "-//W3C//DTD SVG 1.1//EN" "http://www.w3.org/Graphics/SVG/1.1/DTD/svg11.dtd">
<svg version="1.1" xmlns="http://www.w3.org/2000/svg" xmlns:xlink="http://www.w3.org/1999/xlink" x="0px" y="0px" width="128" height="128" viewBox="0, 0, 128, 128">
  <g id="Background">
    <rect x="0" y="0" width="128" height="128" fill="#000000" fill-opacity="0"/>
  </g>
  <g id="Background">
    <path d="M18.093,6 L109.907,6 C116.561,6 122,11.439 122,18.095 L122,109.907 C122,116.561 116.561,122 109.907,122 L18.093,122 C11.439,122 6,116.561 6,109.907 L6,18.095 C6,11.439 11.439,6 18.093,6" fill="#727272"/>
    <path d="M16.696,36.028 L33.982,36.028 L33.982,53.313 L16.696,53.313 z" fill="#EBEDED"/>
    <path d="M16.696,74.691 L33.982,74.691 L33.982,91.977 L16.696,91.977 z" fill="#EBEDED"/>
    <path d="M36.028,16.696 L53.313,16.696 L53.313,33.982 L36.028,33.982 z" fill="#EBEDED"/>
    <path d="M74.691,16.696 L91.977,16.696 L91.977,33.982 L74.691,33.982 z" fill="#EBEDED"/>
    <path d="M36.028,36.028 L53.313,36.028 L53.313,53.313 L36.028,53.313 z" fill="#EBEDED"/>
    <path d="M55.36,36.028 L72.645,36.028 L72.645,53.313 L55.36,53.313 z" fill="#EBEDED"/>
    <path d="M74.691,36.028 L91.977,36.028 L91.977,53.313 L74.691,53.313 z" fill="#EBEDED"/>
    <path d="M94.023,36.028 L111.309,36.028 L111.309,53.313 L94.023,53.313 z" fill="#EBEDED"/>
    <path d="M36.028,55.36 L53.313,55.36 L53.313,72.645 L36.028,72.645 z" fill="#EBEDED"/>
    <path d="M74.691,55.36 L91.977,55.36 L91.977,72.645 L74.691,72.645 z" fill="#EBEDED"/>
    <path d="M36.028,74.691 L53.313,74.691 L53.313,91.977 L36.028,91.977 z" fill="#EBEDED"/>
    <path d="M55.36,74.691 L72.645,74.691 L72.645,91.977 L55.36,91.977 z" fill="#EBEDED"/>
    <path d="M74.691,74.691 L91.977,74.691 L91.977,91.977 L74.691,91.977 z" fill="#EBEDED"/>
    <path d="M94.023,74.691 L111.309,74.691 L111.309,91.977 L94.023,91.977 z" fill="#EBEDED"/>
    <path d="M36.028,94.023 L53.313,94.023 L53.313,111.309 L36.028,111.309 z" fill="#EBEDED"/>
    <path d="M74.691,94.023 L91.977,94.023 L91.977,111.309 L74.691,111.309 z" fill="#EBEDED"/>
    <path d="M44.257,63.895 L102.158,6 L109.907,6 C116.561,6 122,11.439 122,18.095 L122,109.907 C122,116.561 116.561,122 109.907,122 L102.362,122 z" fill="#737370"/>
    <path d="M86.807,72.66 C86.921,73.514 87.095,74.193 87.327,74.701 C87.566,75.204 87.817,75.582 88.086,75.834 C88.36,76.09 88.653,76.254 88.963,76.331 C89.273,76.409 89.565,76.446 89.836,76.446 C90.498,76.446 91.031,76.281 91.439,75.953 C91.85,75.624 92.161,75.176 92.375,74.609 C92.584,74.048 92.731,73.417 92.808,72.719 C92.886,72.015 92.927,71.316 92.927,70.618 C92.927,69.023 92.713,67.791 92.288,66.914 C91.858,66.041 91.041,65.603 89.836,65.603 C89.488,65.603 89.04,65.759 88.497,66.069 C87.954,66.38 87.429,67.042 86.921,68.052 L76.486,68.052 L76.486,44.678 L103.189,44.678 L103.189,53.127 L87.506,53.127 L87.506,57.443 C88.241,57.174 89.022,56.958 89.836,56.803 C90.653,56.648 91.411,56.57 92.109,56.57 C94.558,56.57 96.572,56.9 98.143,57.562 C99.718,58.219 100.97,59.133 101.906,60.301 C102.837,61.466 103.49,62.854 103.856,64.467 C104.226,66.078 104.45,67.818 104.527,69.687 C104.527,72.134 104.244,74.33 103.682,76.272 C103.121,78.218 102.253,79.876 101.088,81.26 C99.923,82.639 98.426,83.697 96.599,84.434 C94.772,85.173 92.599,85.542 90.068,85.542 C88.594,85.542 87.078,85.387 85.524,85.077 C83.966,84.767 82.52,84.21 81.181,83.414 C79.839,82.615 78.674,81.519 77.683,80.122 C76.692,78.719 76.02,76.934 75.669,74.756 z" fill="#EBEDED"/>
  </g>
  <defs/>
</svg>
